<?xml version="1.0" encoding="UTF-8" standalone="no"?>
<!-- Created with Inkscape (http://www.inkscape.org/) -->

<svg
   width="120"
   height="120"
   viewBox="0 0 120 120"
   version="1.1"
   id="svg1"
   xml:space="preserve"
   xmlns="http://www.w3.org/2000/svg"
   xmlns:svg="http://www.w3.org/2000/svg"><defs
     id="defs1" /><g
     id="layer1"><path
       d="m 26.269482,38.859375 c 0.913435,2.605727 1.36635,5.55178 1.5,8.382813 0.06549,15.227088 0.02692,30.458958 0.03711,45.6875 -0.09423,5.901771 0.489406,12.093932 -1.308593,17.667972 -0.07972,0.24344 -0.16796,0.49044 -0.25586,0.73632 3.808727,-2.38218 6.517578,-8.57781 6.517578,-15.906245 V 54.75 c 0,-7.310996 -2.695833,-13.495921 -6.490235,-15.890625 z"
       style="fill:#116811;fill-opacity:1;stroke:none;stroke-width:0.641372;stroke-linecap:round;stroke-linejoin:round;stroke-dashoffset:6"
       id="path12" /><path
       d="m 28.009717,15 c -5.411549,0 -10.122353,1.896779 -12.759766,4.746094 1.55231,-0.370238 3.171919,-0.579562 4.75,-0.671875 5.959897,-0.08952 11.926656,-0.02684 17.888672,-0.04492 3.549698,-0.08322 7.210737,0.104037 10.509766,1.248046 2.354929,0.847618 4.971366,2.152345 5.521484,4.330079 0.111782,7.446735 0.02956,14.901629 0.05273,22.351562 -0.137233,1.624527 0.465829,3.420715 -0.751954,4.869141 -2.488839,2.618244 -6.683896,3.70899 -10.628906,4.041016 -5.121659,0.19978 -10.257124,0.06777 -15.384765,0.09961 -3.974247,-0.0062 -8.110955,0.213938 -11.949219,-0.707031 C 17.896822,58.105912 22.603985,60 28.009717,60 h 15 c 8.309992,0 15,-4.460006 15,-10 V 25 c 0,-5.539995 -6.690008,-10 -15,-10 z"
       style="fill:#116811;fill-opacity:1;stroke:none;stroke-width:0.498898;stroke-linecap:round;stroke-linejoin:round;stroke-dashoffset:6"
       id="path11" /><path
       d="m 85.277314,38.859375 c 0.913435,2.605727 1.36635,5.55178 1.5,8.382813 0.06549,15.227088 0.02692,30.458958 0.03711,45.6875 -0.09423,5.901771 0.489406,12.093932 -1.308593,17.667972 -0.07972,0.24344 -0.16796,0.49044 -0.25586,0.73632 3.808727,-2.38218 6.517578,-8.57781 6.517578,-15.906245 V 54.75 c 0,-7.310996 -2.695833,-13.495921 -6.490235,-15.890625 z"
       style="fill:#116811;fill-opacity:1;stroke:none;stroke-width:0.641372;stroke-linecap:round;stroke-linejoin:round;stroke-dashoffset:6"
       id="path13" /><path
       d="m 90,15 c 5.411549,0 10.12235,1.896779 12.75977,4.746094 -1.55231,-0.370238 -3.171921,-0.579562 -4.750001,-0.671875 -5.9599,-0.08952 -11.926659,-0.02684 -17.888675,-0.04492 -3.549698,-0.08322 -7.210737,0.104037 -10.509766,1.248046 -2.354929,0.847618 -4.971366,2.152345 -5.521484,4.330079 -0.111782,7.446735 -0.02956,14.901629 -0.05273,22.351562 0.137233,1.624527 -0.465829,3.420715 0.751954,4.869141 2.488839,2.618244 6.683896,3.70899 10.628906,4.041016 5.121659,0.19978 10.257124,0.06777 15.384765,0.09961 3.974247,-0.0062 8.11095,0.213938 11.949221,-0.707031 C 100.11289,58.105912 95.405732,60 90,60 H 75 C 66.690008,60 60,55.539994 60,50 V 25 c 0,-5.539995 6.690008,-10 15,-10 z"
       style="fill:#116811;fill-opacity:1;stroke:none;stroke-width:0.498898;stroke-linecap:round;stroke-linejoin:round;stroke-dashoffset:6"
       id="path14" /></g></svg>
